<?xml version="1.0" encoding="UTF-8"?>
<svg xmlns="http://www.w3.org/2000/svg" version="1.1" viewBox="0 0 199.7 199.7">
  <defs>
    <style>
      .cls-1 {
        fill: #ebe9e7;
      }
    </style>
  </defs>
  <!-- Generator: Adobe Illustrator 28.7.1, SVG Export Plug-In . SVG Version: 1.2.0 Build 142)  -->
  <g>
    <g id="a">
      <g>
        <path class="cls-1" d="M26.5,52.3v-14.5c0-6.3,5.1-11.4,11.4-11.4h14.5c2.5,0,4.5-2,4.5-4.5v-11c0-2.5-2-4.5-4.5-4.5H19.7c-7.3,0-13.2,5.9-13.2,13.2v32.7c0,2.5,2,4.5,4.5,4.5h11c2.5,0,4.5-2,4.5-4.5Z"/>
        <path class="cls-1" d="M147.4,26.5h14.5c6.3,0,11.4,5.1,11.4,11.4v14.5c0,2.5,2,4.5,4.5,4.5h11c2.5,0,4.5-2,4.5-4.5V19.7c0-7.3-5.9-13.2-13.2-13.2h-32.7c-2.5,0-4.5,2-4.5,4.5v11c0,2.5,2,4.5,4.5,4.5Z"/>
        <path class="cls-1" d="M52.3,173.3h-14.5c-6.3,0-11.4-5.1-11.4-11.4v-14.5c0-2.5-2-4.5-4.5-4.5h-11c-2.5,0-4.5,2-4.5,4.5v32.7c0,7.3,5.9,13.2,13.2,13.2h32.7c2.5,0,4.5-2,4.5-4.5v-11c0-2.5-2-4.5-4.5-4.5Z"/>
        <path class="cls-1" d="M173.3,147.4v14.5c0,6.3-5.1,11.4-11.4,11.4h-14.5c-2.5,0-4.5,2-4.5,4.5v11c0,2.5,2,4.5,4.5,4.5h32.7c7.3,0,13.2-5.9,13.2-13.2v-32.7c0-2.5-2-4.5-4.5-4.5h-11c-2.5,0-4.5,2-4.5,4.5Z"/>
      </g>
    </g>
  </g>
</svg>