<?xml version="1.0" encoding="UTF-8"?>
<svg xmlns="http://www.w3.org/2000/svg" version="1.1" viewBox="0 0 199.7 199.7">
  <defs>
    <style>
      .cls-1 {
        fill: #ebe9e7;
      }

      .cls-2 {
        fill: #0f2c49;
      }
    </style>
  </defs>
  <!-- Generator: Adobe Illustrator 28.7.1, SVG Export Plug-In . SVG Version: 1.2.0 Build 142)  -->
  <g>
    <g id="a">
      <circle class="cls-2" cx="99.9" cy="99.9" r="95.4"/>
      <g>
        <path class="cls-1" d="M54.9,70.8v-8.9c0-3.8,3.1-7,7-7h8.9c1.5,0,2.7-1.2,2.7-2.7v-6.8c0-1.5-1.2-2.7-2.7-2.7h-20c-4.5,0-8.1,3.6-8.1,8.1v20c0,1.5,1.2,2.7,2.7,2.7h6.8c1.5,0,2.7-1.2,2.7-2.7Z"/>
        <path class="cls-1" d="M128.9,54.9h8.9c3.8,0,7,3.1,7,7v8.9c0,1.5,1.2,2.7,2.7,2.7h6.8c1.5,0,2.7-1.2,2.7-2.7v-20c0-4.5-3.6-8.1-8.1-8.1h-20c-1.5,0-2.7,1.2-2.7,2.7v6.8c0,1.5,1.2,2.7,2.7,2.7Z"/>
        <path class="cls-1" d="M70.8,144.8h-8.9c-3.8,0-7-3.1-7-7v-8.9c0-1.5-1.2-2.7-2.7-2.7h-6.8c-1.5,0-2.7,1.2-2.7,2.7v20c0,4.5,3.6,8.1,8.1,8.1h20c1.5,0,2.7-1.2,2.7-2.7v-6.8c0-1.5-1.2-2.7-2.7-2.7Z"/>
        <path class="cls-1" d="M144.8,128.9v8.9c0,3.8-3.1,7-7,7h-8.9c-1.5,0-2.7,1.2-2.7,2.7v6.8c0,1.5,1.2,2.7,2.7,2.7h20c4.5,0,8.1-3.6,8.1-8.1v-20c0-1.5-1.2-2.7-2.7-2.7h-6.8c-1.5,0-2.7,1.2-2.7,2.7Z"/>
      </g>
    </g>
  </g>
</svg>