<?xml version="1.0" encoding="UTF-8"?><svg id="a" xmlns="http://www.w3.org/2000/svg" width="511.45" height="216.37" viewBox="0 0 511.45 216.37"><path d="M143.05,0c2.53.33,5.08.59,7.6,1,20.5,3.33,34.68,16.72,39.3,37.05,2.09,9.19,2.24,18.45,1.14,27.77-1.11,9.44-3.33,18.63-6.15,27.7-.28.92-.71,1.15-1.62,1.14-4.05-.05-8.11-.02-12.29-.02.66-2.38,1.39-4.61,1.88-6.88,1.91-8.83,2.03-17.57-1.87-25.96-3.85-8.28-10.68-13.1-19.13-15.89-7.75-2.55-15.76-2.96-23.81-2.5-26.14,1.49-49.51,10.5-70.2,26.42-15.27,11.76-27.12,26.28-34.41,44.28-3.05,7.54-5.18,15.29-4.96,23.51.26,9.59,3.26,18.1,10.34,24.86,5.41,5.16,11.98,8.16,19.21,9.63,15.12,3.07,29.82,1.82,43.89-4.79,5.23-2.46,9.82-5.82,13.56-10.3,9.9-11.86,4.52-30.57-9.9-36.28-1.5-.6-3.08-.99-4.6-1.56-.34-.13-.79-.56-.8-.87-.06-2.52-.04-5.03-.04-7.65h90.64c-.2.52-.36.94-.53,1.36-6.3,14.61-12.65,29.2-18.88,43.83-1.77,4.15-2.43,8.54-1.46,13.04.99,4.6,4.44,7.41,9.14,7.75,4.41.31,8.12-1.24,11.41-4.01,4.46-3.74,7.6-8.52,10.48-13.49,4.48-7.74,7.74-16.05,11.25-24.25,18.67-43.65,37.31-87.31,55.94-130.97.39-.92.84-1.26,1.88-1.22,3.8.15,7.6.18,11.4.27.41,0,.83.05,1.39.09-11.93,28.15-23.81,56.16-35.69,84.18.06.04.11.07.17.11,1.1-1.22,2.19-2.46,3.3-3.67,6.94-7.51,14.53-14.23,23.65-19.01,4.53-2.37,9.28-4.11,14.44-4.49,8.61-.62,15.3,2.76,20.13,9.81,3.82,5.58,5.4,11.92,5.96,18.56,1,11.99-1.3,23.5-5.53,34.62-4.13,10.88-8.66,21.61-13.03,32.4-1.48,3.66-2.6,7.42-2.87,11.37-.1,1.55.04,3.17.4,4.69.73,3.07,3.02,4.81,6.18,4.99,3.92.22,7.53-.85,10.92-2.69,6.86-3.72,11.95-9.3,15.57-16.06,3.08-5.74,5.67-11.75,8.28-17.73,11.01-25.26,21.95-50.55,32.88-75.84.43-.99.94-1.28,1.98-1.26,4.17.06,8.35.02,12.71.02-.28.7-.5,1.24-.72,1.78-12.29,29.17-24.58,58.33-36.85,87.5-1.9,4.52-3.25,9.17-3.01,14.15.3,6.19,4.25,10.02,10.43,10.16,2.92.07,5.55-.77,8.01-2.26,3.14-1.9,5.75-4.43,8.15-7.16,6.61-7.5,12.04-15.85,16.95-24.51,2.58-4.55,4.34-9.56,6.77-14.2,9.15-17.44,20.49-33.3,34.67-47.03,7.28-7.04,15.17-13.28,24.45-17.54,5.57-2.56,11.36-4.22,17.58-3.79,6.61.46,11.52,3.69,14.85,9.34,3.14,5.33,4.24,11.22,4.49,17.3.15,3.58.03,7.16.03,10.66.11-.25.31-.67.49-1.1,4.45-10.67,8.92-21.33,13.33-32.01.4-.96.86-1.34,1.94-1.32,4.18.07,8.37.03,12.67.03-.13.39-.2.71-.33,1.01-12.23,29.51-24.46,59.02-36.69,88.54-1.41,3.4-2.59,6.9-2.77,10.6-.1,2.14,0,4.38.52,6.45,1.05,4.15,4.46,6.62,8.82,6.96,4.06.32,7.56-.97,10.7-3.44,3.82-3,6.7-6.81,9.31-10.83,4.13-6.35,7.46-13.13,10.47-20.06.48-1.1,1.04-1.49,2.18-1.29.88.15,1.79.17,2.68.25v.26c-.86,2.04-1.73,4.07-2.58,6.11-5.37,12.93-10.82,25.81-17.92,37.92-3.75,6.39-7.94,12.46-13.45,17.51-6.81,6.24-14.67,8.65-23.76,6.65-6.13-1.34-10.48-4.67-11.91-11.05-.74-3.3-.54-6.63.01-9.93.96-5.77,3.09-11.16,5.34-16.52.16-.39.31-.79.46-1.18-.46.26-.71.6-.96.94-7.11,9.89-14.95,19.12-24.54,26.72-6.58,5.22-13.66,9.56-22.07,11.13-9.28,1.72-17.38-.45-23.75-7.73-3.47-3.97-5.63-8.65-6.85-13.73-.75-3.13-1.19-6.34-1.78-9.6-.74,1.12-1.48,2.24-2.23,3.36-4.89,7.28-9.97,14.41-16.42,20.42-5.65,5.27-12,8.54-20.1,7.74-8.34-.83-13.58-5.79-14.41-14.1-.52-5.19.31-10.22,1.46-15.23.36-1.57.8-3.12,1.2-4.68-.38.23-.6.53-.79.85-1.63,2.61-3.18,5.27-4.88,7.82-4.79,7.17-10.1,13.9-17.05,19.15-4.54,3.43-9.47,5.89-15.28,6.28-7.71.51-13.36-3.36-15.15-10.86-.67-2.83-.91-5.84-.81-8.75.3-9.25,2.88-18.02,6.39-26.49,4.54-10.95,9.39-21.78,14.09-32.66,1.67-3.86,2.82-7.85,3.06-12.09.43-7.71-3.43-13.67-10.72-16.21-6-2.09-12.17-2.11-18.35-1.12-9.28,1.48-17.3,5.65-24.38,11.71-9.49,8.13-15.96,18.41-20.76,29.78-5.36,12.67-11.06,25.16-18.49,36.78-5.01,7.84-10.62,15.2-17.89,21.13-6.34,5.18-13.41,8.64-21.78,8.78-6.52.11-11.87-2.17-15.34-7.95-1.91-3.18-2.71-6.71-2.89-10.38-.37-7.32,1.38-14.25,4.26-20.89,6.48-14.95,13.06-29.85,19.59-44.78.43-.98.84-1.98,1.33-3.11-3.69,0-7.15.07-10.6-.04-1.29-.04-1.83.38-2.28,1.57-5.5,14.52-12.68,28.16-21.74,40.78-10.6,14.75-23.14,27.5-38.61,37.19-10,6.27-20.71,10.8-32.43,12.73-2.22.37-4.47.61-6.7.9h-7.69c-.29-.07-.57-.18-.86-.21-12.92-1.27-22.98-7.37-30.25-18.06-5.95-8.76-8.64-18.65-9.65-29.07-.22-2.25-.35-4.5-.52-6.75,0-1.11,0-2.22,0-3.33.08-.85.15-1.69.23-2.54.29-3.36.44-6.74.89-10.07,1.75-12.93,5.5-25.32,10.58-37.31,10.21-24.13,24.58-45.54,42.61-64.5,12.59-13.23,26.61-24.66,42.84-33.21,9.53-5.02,19.54-8.73,30.22-10.43,2.31-.37,4.65-.6,6.97-.89,2.91,0,5.81,0,8.72,0ZM447.63,101.29c-4.46.32-8.81.91-13.05,2.15-14.3,4.19-26.07,12.31-35.84,23.41-5.06,5.76-9.12,12.15-11.24,19.61-1.22,4.28-1.59,8.63.29,12.79,3.01,6.67,8.61,9.46,15.62,9.61,5.24.11,10.37-.9,15.31-2.66,16.96-6.04,29.96-17.07,39.79-31.98,3.43-5.2,5.99-10.81,7.18-16.98,1.43-7.44-1.66-12.6-8.99-14.52-2.95-.77-6.04-.97-9.07-1.43Z" fill="#f4eee9" stroke-width="0"/><path d="M369.37,40.89c-.63-.06-1.54-.06-2.41-.23-4.32-.85-6.56-3.94-6.41-8.82.09-2.81.62-5.53,1.92-8.03,4.92-9.5,12.26-16.42,22.25-20.37,3.05-1.2,6.25-1.66,9.55-1.17,4.4.66,7.02,3.51,7.15,7.97.08,2.56-.41,5.04-1.49,7.34-5.13,11.05-13.31,18.74-25,22.49-.93.3-1.91.46-2.88.6-.8.12-1.62.12-2.7.2Z" fill="#f4eee9" stroke-width="0"/></svg>