<?xml version="1.0" encoding="UTF-8"?>
<svg xmlns="http://www.w3.org/2000/svg" version="1.1" viewBox="0 0 50 50">
  <defs>
    <style>
      .cls-1 {
        fill: #00d15e;
      }

      .cls-2 {
        fill: #eae8e6;
      }

      .cls-3 {
        fill: #012d4b;
      }
    </style>
  </defs>
  <!-- Generator: Adobe Illustrator 28.7.1, SVG Export Plug-In . SVG Version: 1.2.0 Build 142)  -->
  <g>
    <g id="Layer_1">
      <g>
        <circle class="cls-1" cx="25" cy="25" r="24.6"/>
        <g>
          <polygon class="cls-2" points="30.3 20.4 30.3 18.5 28.4 18.5 28.4 16.6 26.5 16.6 24.6 16.6 24.6 18.5 24.6 20.4 22.7 20.4 22.7 22.3 22.7 24.2 20.8 24.2 20.8 26 20.8 27.9 19 27.9 19 29.8 20.8 29.8 22.7 29.8 22.7 31.7 24.6 31.7 26.5 31.7 26.5 29.8 26.5 27.9 28.4 27.9 28.4 26 28.4 24.2 30.3 24.2 30.3 22.3 30.3 20.4"/>
          <polygon class="cls-2" points="34 12.9 32.1 12.9 32.1 11 30.3 11 28.4 11 28.4 12.9 26.5 12.9 26.5 14.7 28.4 14.7 28.4 16.6 30.3 16.6 30.3 18.5 32.1 18.5 32.1 16.6 34 16.6 34 14.7 34 12.9"/>
          <path class="cls-3" d="M17.1,27.9v13.2h1.9v-1.9h1.9v-1.9h1.9v-1.9h1.9v-1.9h1.9v-1.9h-3.8v-1.9h-3.8v-1.9h-1.9ZM19,24.2v3.8h1.9v-3.8h-1.9ZM28.4,18.5h1.9v-1.9h-1.9v1.9ZM24.6,12.9v3.8h-1.9v3.8h-1.9v3.8h1.9v-3.8h1.9v-3.8h3.8v-1.9h-1.9v-1.9h-1.9ZM34,11h-1.9v1.9h1.9v3.8h-1.9v1.9h-1.9v5.6h-1.9v3.8h-1.9v3.8h1.9v-3.8h1.9v-3.8h1.9v-3.8h1.9v-3.8h1.9v-5.6h-1.9ZM30.3,9.1h-3.8v3.8h1.9v-1.9h3.8v-1.9h-1.9Z"/>
        </g>
      </g>
    </g>
  </g>
</svg>